HIERARCHY
ROOT Hips
{
	OFFSET 0.000000 0.000000 0.000000
	CHANNELS 6 Xposition Yposition Zposition Xrotation Zrotation Yrotation
	JOINT LeftHipJoint
	{
		OFFSET 0.100000 0.000000 0.000000
		CHANNELS 6 Xposition Yposition Zposition Xrotation Zrotation Yrotation
		JOINT LeftUpLeg
		{
			OFFSET 0.107972 0.000000 0.000000
			CHANNELS 6 Xposition Yposition Zposition Xrotation Zrotation Yrotation
			JOINT LeftLeg
			{
				OFFSET 0.000000 0.000000 -0.351231
				CHANNELS 6 Xposition Yposition Zposition Xrotation Zrotation Yrotation
				JOINT LeftFoot
				{
					OFFSET 0.000000 0.000000 -0.469094
					CHANNELS 6 Xposition Yposition Zposition Xrotation Zrotation Yrotation
					End Site
					{
						OFFSET 0.000000 -0.100000 0.000000
					}
				}
			}
		}
	}
	JOINT LowerBack
	{
		OFFSET 0.000000 0.000000 0.100000
		CHANNELS 6 Xposition Yposition Zposition Xrotation Zrotation Yrotation
		JOINT Spine
		{
			OFFSET 0.000000 0.000000 0.194444
			CHANNELS 6 Xposition Yposition Zposition Xrotation Zrotation Yrotation
			JOINT Spine1
			{
				OFFSET 0.000000 0.000000 0.227222
				CHANNELS 6 Xposition Yposition Zposition Xrotation Zrotation Yrotation
				JOINT LeftShoulder
				{
					OFFSET 0.100000 0.000000 0.000000
					CHANNELS 6 Xposition Yposition Zposition Xrotation Zrotation Yrotation
					JOINT LeftArm
					{
						OFFSET 0.123584 0.000000 0.000000
						CHANNELS 6 Xposition Yposition Zposition Xrotation Zrotation Yrotation
						JOINT LeftForeArm
						{
							OFFSET 0.229562 0.000000 0.000000
							CHANNELS 6 Xposition Yposition Zposition Xrotation Zrotation Yrotation
							JOINT LeftHand
							{
								OFFSET 0.160834 0.000000 0.000000
								CHANNELS 6 Xposition Yposition Zposition Xrotation Zrotation Yrotation
								End Site
								{
									OFFSET 0.100000 0.000000 0.000000
								}
							}
						}
					}
				}
				JOINT Neck
				{
					OFFSET 0.000000 0.000000 0.100000
					CHANNELS 6 Xposition Yposition Zposition Xrotation Zrotation Yrotation
					JOINT Neck1
					{
						OFFSET 0.000000 0.000000 0.161555
						CHANNELS 6 Xposition Yposition Zposition Xrotation Zrotation Yrotation
						End Site
						{
							OFFSET 0.000000 0.000000 0.081267
						}
					}
				}
				JOINT RightShoulder
				{
					OFFSET -0.100000 0.000000 0.000000
					CHANNELS 6 Xposition Yposition Zposition Xrotation Zrotation Yrotation
					JOINT RightArm
					{
						OFFSET -0.123584 0.000000 0.000000
						CHANNELS 6 Xposition Yposition Zposition Xrotation Zrotation Yrotation
						JOINT RightForeArm
						{
							OFFSET -0.229562 0.000000 0.000000
							CHANNELS 6 Xposition Yposition Zposition Xrotation Zrotation Yrotation
							JOINT RightHand
							{
								OFFSET -0.160834 0.000000 0.000000
								CHANNELS 6 Xposition Yposition Zposition Xrotation Zrotation Yrotation
								End Site
								{
									OFFSET -0.100000 0.000000 0.000000
								}
							}
						}
					}
				}
			}
		}
	}
	JOINT RightHipJoint
	{
		OFFSET -0.100000 0.000000 0.000000
		CHANNELS 6 Xposition Yposition Zposition Xrotation Zrotation Yrotation
		JOINT RightUpLeg
		{
			OFFSET -0.107972 0.000000 0.000000
			CHANNELS 6 Xposition Yposition Zposition Xrotation Zrotation Yrotation
			JOINT RightLeg
			{
				OFFSET 0.000000 0.000000 -0.351231
				CHANNELS 6 Xposition Yposition Zposition Xrotation Zrotation Yrotation
				JOINT RightFoot
				{
					OFFSET 0.000000 0.000000 -0.469094
					CHANNELS 6 Xposition Yposition Zposition Xrotation Zrotation Yrotation
					End Site
					{
						OFFSET 0.000000 -0.100000 0.000000
					}
				}
			}
		}
	}
}
MOTION
Frames: 6
Frame Time: 0.041667
0.000000 0.000000 0.000000 13.449028 -0.000003 -1.991165 0.100000 0.000000 -0.000000 -0.000000 -0.000000 0.000000 0.107972 0.000000 -0.000000 -82.825988 6.806719 -4.689634 0.000000 0.000000 -0.351231 112.454529 -2.473788 15.528992 -0.000000 -0.000000 -0.469094 0.000005 -0.000000 -0.000001 0.000000 -0.000000 0.100000 -0.000000 -0.000000 0.000000 0.000000 -0.000000 0.194444 3.543142 -0.123103 -30.836422 0.000000 0.000000 0.227222 0.000004 16.780107 0.000002 0.100000 0.000000 0.000000 0.000003 -0.000002 0.000005 0.123584 0.000000 0.000000 -56.218095 9.899598 30.103673 0.229562 -0.000000 -0.000000 0.000004 -33.079651 -0.000001 0.160834 -0.000000 0.000000 0.000000 -0.000001 -0.000001 0.000000 0.000000 0.100000 0.000001 -0.000000 0.000001 0.000000 0.000000 0.161555 58.073000 14.972830 8.102623 -0.100000 0.000000 0.000000 0.000003 -0.000001 0.000005 -0.123584 0.000000 0.000000 -21.397559 61.418618 9.988351 -0.229562 -0.000000 0.000000 -0.000003 31.191671 0.000000 -0.160834 -0.000000 0.000000 -0.000002 -0.000001 -0.000001 -0.100000 -0.000000 0.000000 -0.000000 -0.000000 0.000000 -0.107972 0.000000 0.000000 -43.189581 -4.218550 13.414293 -0.000000 -0.000000 -0.351231 68.628054 12.519838 10.781729 -0.000000 0.000000 -0.469094 -0.000000 0.000000 0.000002 
0.000000 0.000000 0.000000 13.583922 -0.000001 -2.029897 0.100000 -0.000000 0.000000 -0.000000 0.000000 0.000000 0.107972 0.000000 -0.000000 -82.530446 6.776489 -4.832582 0.000000 0.000000 -0.351231 112.410003 -2.667211 15.391500 -0.000000 0.000000 -0.469094 0.000000 0.000001 0.000003 0.000000 0.000000 0.100000 -0.000000 -0.000000 0.000000 0.000000 0.000000 0.194444 3.731633 -0.132167 -30.756991 0.000000 -0.000000 0.227222 0.000003 16.738043 0.000006 0.100000 -0.000000 0.000000 0.000001 0.000000 -0.000000 0.123584 0.000000 -0.000000 -55.930001 9.785875 29.768949 0.229562 -0.000000 -0.000000 0.000003 -33.594729 -0.000002 0.160834 0.000000 0.000000 0.000002 0.000002 0.000001 0.000000 -0.000000 0.100000 0.000000 0.000001 -0.000002 -0.000000 0.000000 0.161555 58.125729 15.581977 7.872789 -0.100000 -0.000000 0.000000 0.000001 -0.000000 -0.000000 -0.123584 -0.000000 0.000000 -21.650967 61.606080 10.002178 -0.229562 -0.000000 0.000000 -0.000000 31.131128 -0.000001 -0.160834 0.000000 0.000000 0.000002 0.000000 0.000000 -0.100000 0.000000 -0.000000 -0.000000 0.000000 0.000000 -0.107972 0.000000 0.000000 -42.503806 -4.108328 14.009569 -0.000000 0.000000 -0.351231 67.776623 12.992182 9.935272 -0.000000 -0.000000 -0.469094 -0.000002 0.000000 0.000000 
0.000000 0.000000 0.000000 13.696099 -0.000000 -2.071293 0.100000 0.000000 0.000000 0.000002 -0.000000 -0.000000 0.107972 0.000000 -0.000000 -82.226011 6.735393 -4.990512 -0.000000 0.000000 -0.351231 112.343006 -2.869412 15.248093 -0.000000 -0.000000 -0.469094 -0.000001 -0.000000 -0.000002 -0.000000 0.000000 0.100000 0.000000 -0.000000 -0.000000 0.000000 0.000000 0.194444 3.929296 -0.141997 -30.675729 -0.000000 0.000000 0.227222 0.000002 16.689724 0.000006 0.100000 -0.000000 0.000000 -0.000002 -0.000001 -0.000000 0.123584 0.000000 0.000000 -55.561864 9.606195 29.412393 0.229562 -0.000000 0.000000 0.000005 -34.166799 0.000001 0.160834 0.000000 0.000000 -0.000003 0.000000 0.000002 0.000000 0.000000 0.100000 -0.000002 0.000001 -0.000002 0.000000 0.000000 0.161555 58.291887 16.220688 7.655624 -0.100000 0.000000 -0.000000 -0.000001 -0.000000 -0.000000 -0.123584 -0.000000 0.000000 -21.809692 61.828641 10.089647 -0.229562 -0.000000 0.000000 -0.000003 31.090283 0.000002 -0.160834 0.000000 0.000000 0.000003 -0.000002 0.000002 -0.100000 0.000000 -0.000000 0.000002 -0.000000 -0.000000 -0.107972 0.000000 0.000000 -41.844543 -3.992223 14.575704 0.000000 0.000000 -0.351231 66.981534 13.414570 9.103859 -0.000000 0.000000 -0.469094 -0.000003 0.000000 0.000000 
0.000000 0.000000 0.000000 13.773626 -0.000000 -2.122367 0.100000 0.000000 -0.000000 -0.000000 0.000000 0.000000 0.107972 0.000000 -0.000000 -81.910688 6.701964 -5.157769 -0.000000 0.000000 -0.351231 112.243347 -3.064833 15.102663 0.000000 -0.000000 -0.469094 0.000002 -0.000003 -0.000003 -0.000000 -0.000000 0.100000 0.000000 -0.000000 0.000000 0.000000 -0.000000 0.194444 4.140004 -0.153292 -30.591601 0.000000 0.000000 0.227222 -0.000001 16.636393 -0.000002 0.100000 -0.000000 0.000000 0.000003 -0.000002 0.000001 0.123584 0.000000 -0.000000 -55.059719 9.333197 29.045595 0.229562 -0.000000 0.000000 -0.000002 -34.790890 -0.000000 0.160834 0.000000 0.000000 0.000001 0.000002 -0.000002 -0.000000 -0.000000 0.100000 0.000001 -0.000002 -0.000000 0.000000 0.000000 0.161555 58.576126 16.882238 7.449877 -0.100000 -0.000000 -0.000000 0.000003 -0.000001 0.000001 -0.123584 -0.000000 0.000000 -21.838388 62.087615 10.282032 -0.229562 -0.000000 0.000000 0.000007 31.073915 0.000006 -0.160834 -0.000000 0.000000 0.000000 0.000000 -0.000001 -0.100000 -0.000000 0.000000 -0.000000 0.000000 0.000000 -0.107972 0.000000 0.000000 -41.241092 -3.882227 15.122172 0.000000 -0.000000 -0.351231 66.274992 13.791250 8.320911 0.000000 0.000000 -0.469094 0.000003 -0.000000 -0.000000 
0.000000 0.000000 0.000000 13.821218 -0.000000 -2.174547 0.100000 0.000000 -0.000000 -0.000000 -0.000000 -0.000000 0.107972 0.000000 -0.000000 -81.597073 6.650732 -5.331582 0.000000 0.000000 -0.351231 112.091184 -3.261685 14.977416 0.000000 -0.000000 -0.469094 0.000001 -0.000001 0.000001 -0.000000 0.000000 0.100000 0.000000 -0.000000 0.000000 0.000000 0.000000 0.194444 4.362356 -0.165483 -30.510841 -0.000000 -0.000000 0.227222 -0.000001 16.574024 -0.000010 0.100000 -0.000000 0.000000 0.000001 -0.000002 0.000003 0.123584 0.000000 0.000000 -54.383745 8.947357 28.674425 0.229562 -0.000000 0.000000 -0.000010 -35.469309 0.000004 0.160834 0.000000 0.000000 0.000002 0.000001 -0.000001 0.000000 -0.000000 0.100000 0.000001 -0.000002 0.000003 0.000000 0.000000 0.161555 58.983000 17.560645 7.264557 -0.100000 -0.000000 -0.000000 0.000002 -0.000002 0.000003 -0.123584 -0.000000 0.000000 -21.718871 62.393437 10.601659 -0.229562 -0.000000 -0.000000 0.000003 31.085202 -0.000000 -0.160834 -0.000000 -0.000000 -0.000000 -0.000001 0.000001 -0.100000 0.000000 0.000000 -0.000000 -0.000000 -0.000000 -0.107972 0.000000 0.000000 -40.727141 -3.764258 15.639508 -0.000000 -0.000000 -0.351231 65.670677 14.121440 7.576771 0.000000 -0.000000 -0.469094 0.000003 0.000001 -0.000001 
0.000000 0.000000 0.000000 13.840494 0.000002 -2.231656 0.100000 0.000000 -0.000000 -0.000002 -0.000000 -0.000000 0.107972 0.000000 -0.000000 -81.294093 6.611560 -5.497793 -0.000000 0.000000 -0.351231 111.864749 -3.454820 14.858506 0.000000 -0.000000 -0.469094 -0.000004 0.000000 0.000002 -0.000000 0.000000 0.100000 -0.000002 -0.000000 -0.000000 0.000000 0.000000 0.194444 4.589911 -0.178674 -30.434394 -0.000000 -0.000000 0.227222 0.000000 16.501139 -0.000003 0.100000 -0.000000 -0.000000 0.000003 0.000000 0.000001 0.123584 0.000000 0.000000 -53.569659 8.485534 28.315970 0.229562 -0.000000 -0.000000 0.000004 -36.183286 0.000002 0.160834 0.000000 -0.000000 0.000001 -0.000005 0.000001 -0.000000 -0.000000 0.100000 0.000002 0.000001 0.000001 0.000000 0.000000 0.161555 59.495742 18.234105 7.104322 -0.100000 -0.000000 0.000000 0.000003 0.000000 0.000001 -0.123584 0.000000 0.000000 -21.467223 62.747138 11.037008 -0.229562 -0.000000 0.000000 -0.000001 31.114298 -0.000001 -0.160834 -0.000000 -0.000000 -0.000003 -0.000001 0.000000 -0.100000 -0.000000 0.000000 -0.000002 -0.000000 -0.000000 -0.107972 0.000000 0.000000 -40.315239 -3.649881 16.129008 0.000000 -0.000000 -0.351231 65.162136 14.427730 6.889130 -0.000000 -0.000000 -0.469094 -0.000001 -0.000000 0.000001 
